<svg width="34" height="34" viewBox="0 0 34 34" fill="none" xmlns="http://www.w3.org/2000/svg">
<g clip-path="url(#clip0_5_451)">
<path d="M26.9165 12.3392L19.3614 6.46283C18.6984 5.94703 17.8823 5.66699 17.0423 5.66699C16.2023 5.66699 15.3862 5.94703 14.7232 6.46283L7.16673 12.3392C6.71261 12.6923 6.3452 13.1446 6.09255 13.6614C5.83991 14.1782 5.70871 14.746 5.70898 15.3212V25.5212C5.70898 26.2727 6.0075 26.9934 6.53885 27.5247C7.0702 28.0561 7.79087 28.3546 8.54232 28.3546H25.5423C26.2938 28.3546 27.0144 28.0561 27.5458 27.5247C28.0771 26.9934 28.3757 26.2727 28.3757 25.5212V15.3212C28.3757 14.1553 27.8373 13.0546 26.9165 12.3392Z" stroke="#2A2A2A" stroke-width="3" stroke-linecap="round" stroke-linejoin="round"/>
<path d="M22.6668 21.25C19.536 23.1384 14.4615 23.1384 11.3335 21.25" stroke="#2A2A2A" stroke-width="3" stroke-linecap="round" stroke-linejoin="round"/>
</g>
<defs>
<clipPath id="clip0_5_451">
<rect width="34" height="34" fill="white"/>
</clipPath>
</defs>
</svg>
