<svg width="34" height="34" viewBox="0 0 34 34" fill="none" xmlns="http://www.w3.org/2000/svg">
<g clip-path="url(#clip0_6_490)">
<path d="M14.1665 18.4168C14.1665 19.1683 14.465 19.8889 14.9964 20.4203C15.5277 20.9517 16.2484 21.2502 16.9998 21.2502C17.7513 21.2502 18.472 20.9517 19.0033 20.4203C19.5347 19.8889 19.8332 19.1683 19.8332 18.4168C19.8332 17.6654 19.5347 16.9447 19.0033 16.4134C18.472 15.882 17.7513 15.5835 16.9998 15.5835C16.2484 15.5835 15.5277 15.882 14.9964 16.4134C14.465 16.9447 14.1665 17.6654 14.1665 18.4168Z" stroke="#2A2A2A" stroke-width="3" stroke-linecap="round" stroke-linejoin="round"/>
<path d="M11.3335 29.75V28.3333C11.3335 27.5819 11.632 26.8612 12.1634 26.3299C12.6947 25.7985 13.4154 25.5 14.1668 25.5H19.8335C20.5849 25.5 21.3056 25.7985 21.837 26.3299C22.3683 26.8612 22.6668 27.5819 22.6668 28.3333V29.75" stroke="#2A2A2A" stroke-width="3" stroke-linecap="round" stroke-linejoin="round"/>
<path d="M21.25 7.08333C21.25 7.83478 21.5485 8.55545 22.0799 9.0868C22.6112 9.61816 23.3319 9.91667 24.0833 9.91667C24.8348 9.91667 25.5554 9.61816 26.0868 9.0868C26.6182 8.55545 26.9167 7.83478 26.9167 7.08333C26.9167 6.33189 26.6182 5.61122 26.0868 5.07986C25.5554 4.54851 24.8348 4.25 24.0833 4.25C23.3319 4.25 22.6112 4.54851 22.0799 5.07986C21.5485 5.61122 21.25 6.33189 21.25 7.08333Z" stroke="#2A2A2A" stroke-width="3" stroke-linecap="round" stroke-linejoin="round"/>
<path d="M24.0835 14.1665H26.9168C27.6683 14.1665 28.3889 14.465 28.9203 14.9964C29.4517 15.5277 29.7502 16.2484 29.7502 16.9998V18.4165" stroke="#2A2A2A" stroke-width="3" stroke-linecap="round" stroke-linejoin="round"/>
<path d="M7.0835 7.08333C7.0835 7.83478 7.38201 8.55545 7.91336 9.0868C8.44471 9.61816 9.16538 9.91667 9.91683 9.91667C10.6683 9.91667 11.3889 9.61816 11.9203 9.0868C12.4517 8.55545 12.7502 7.83478 12.7502 7.08333C12.7502 6.33189 12.4517 5.61122 11.9203 5.07986C11.3889 4.54851 10.6683 4.25 9.91683 4.25C9.16538 4.25 8.44471 4.54851 7.91336 5.07986C7.38201 5.61122 7.0835 6.33189 7.0835 7.08333Z" stroke="#2A2A2A" stroke-width="3" stroke-linecap="round" stroke-linejoin="round"/>
<path d="M4.25 18.4165V16.9998C4.25 16.2484 4.54851 15.5277 5.07986 14.9964C5.61122 14.465 6.33189 14.1665 7.08333 14.1665H9.91667" stroke="#2A2A2A" stroke-width="3" stroke-linecap="round" stroke-linejoin="round"/>
</g>
<defs>
<clipPath id="clip0_6_490">
<rect width="34" height="34" fill="white"/>
</clipPath>
</defs>
</svg>
