<svg width="34" height="34" viewBox="0 0 34 34" fill="none" xmlns="http://www.w3.org/2000/svg">
<g clip-path="url(#clip0_6_492)">
<path d="M4.25 17C4.25 18.6744 4.57979 20.3323 5.22054 21.8792C5.86128 23.4261 6.80044 24.8317 7.98439 26.0156C9.16834 27.1996 10.5739 28.1387 12.1208 28.7795C13.6677 29.4202 15.3256 29.75 17 29.75C18.6744 29.75 20.3323 29.4202 21.8792 28.7795C23.4261 28.1387 24.8317 27.1996 26.0156 26.0156C27.1996 24.8317 28.1387 23.4261 28.7795 21.8792C29.4202 20.3323 29.75 18.6744 29.75 17C29.75 15.3256 29.4202 13.6677 28.7795 12.1208C28.1387 10.5739 27.1996 9.16834 26.0156 7.98439C24.8317 6.80044 23.4261 5.86128 21.8792 5.22054C20.3323 4.57979 18.6744 4.25 17 4.25C15.3256 4.25 13.6677 4.57979 12.1208 5.22054C10.5739 5.86128 9.16834 6.80044 7.98439 7.98439C6.80044 9.16834 5.86128 10.5739 5.22054 12.1208C4.57979 13.6677 4.25 15.3256 4.25 17Z" stroke="#2A2A2A" stroke-width="3" stroke-linecap="round" stroke-linejoin="round"/>
<path d="M12.75 14.1665C12.75 15.2937 13.1978 16.3747 13.9948 17.1717C14.7918 17.9687 15.8728 18.4165 17 18.4165C18.1272 18.4165 19.2082 17.9687 20.0052 17.1717C20.8022 16.3747 21.25 15.2937 21.25 14.1665C21.25 13.0393 20.8022 11.9583 20.0052 11.1613C19.2082 10.3643 18.1272 9.9165 17 9.9165C15.8728 9.9165 14.7918 10.3643 13.9948 11.1613C13.1978 11.9583 12.75 13.0393 12.75 14.1665Z" stroke="#2A2A2A" stroke-width="3" stroke-linecap="round" stroke-linejoin="round"/>
<path d="M8.73779 26.7026C9.08843 25.5356 9.80591 24.5127 10.7838 23.7856C11.7617 23.0586 12.9479 22.6661 14.1665 22.6665H19.8331C21.0532 22.6661 22.2409 23.0595 23.2195 23.7882C24.1981 24.5169 24.9154 25.542 25.2646 26.7111" stroke="#2A2A2A" stroke-width="3" stroke-linecap="round" stroke-linejoin="round"/>
</g>
<defs>
<clipPath id="clip0_6_492">
<rect width="34" height="34" fill="white"/>
</clipPath>
</defs>
</svg>
