<svg width="34" height="34" viewBox="0 0 34 34" fill="none" xmlns="http://www.w3.org/2000/svg">
<g clip-path="url(#clip0_6_489)">
<path d="M5.6665 15.5832C5.6665 16.8854 5.92301 18.175 6.42137 19.3781C6.91972 20.5813 7.65018 21.6745 8.57103 22.5953C9.49188 23.5162 10.5851 24.2466 11.7882 24.745C12.9914 25.2433 14.2809 25.4998 15.5832 25.4998C16.8854 25.4998 18.175 25.2433 19.3781 24.745C20.5813 24.2466 21.6745 23.5162 22.5953 22.5953C23.5162 21.6745 24.2466 20.5813 24.745 19.3781C25.2433 18.175 25.4998 16.8854 25.4998 15.5832C25.4998 14.2809 25.2433 12.9914 24.745 11.7882C24.2466 10.5851 23.5162 9.49188 22.5953 8.57103C21.6745 7.65018 20.5813 6.91972 19.3781 6.42137C18.175 5.92301 16.8854 5.6665 15.5832 5.6665C14.2809 5.6665 12.9914 5.92301 11.7882 6.42137C10.5851 6.91972 9.49188 7.65018 8.57103 8.57103C7.65018 9.49188 6.91972 10.5851 6.42137 11.7882C5.92301 12.9914 5.6665 14.2809 5.6665 15.5832Z" stroke="#2A2A2A" stroke-width="3" stroke-linecap="round" stroke-linejoin="round"/>
<path d="M28.3332 28.3332L22.6665 22.6665" stroke="#2A2A2A" stroke-width="3" stroke-linecap="round" stroke-linejoin="round"/>
</g>
<defs>
<clipPath id="clip0_6_489">
<rect width="34" height="34" fill="white"/>
</clipPath>
</defs>
</svg>
